M48
;Layer_Color=9474304
;FILE_FORMAT=4:4
METRIC,LZ
;TYPE=PLATED
T1F00S00C0.2500
T2F00S00C0.5000
T4F00S00C2.1996
;TYPE=NON_PLATED
T5F00S00C0.7000
T6F00S00C1.7000
T8F00S00C3.0000
T9F00S00C3.0500
T10F00S00C4.0000
%
T01
X-019525Y-009125
X-01903Y-00913
X-01867
X-0178Y-0091
X-001625Y-0084
X-0016827Y-008325
X-00173662Y-0082577
Y-00621338
X-0053Y-0077
X-0056
X-00874Y-00767
X-009Y-0077
X-0117Y-0074677
Y-00728
X-01216Y-0077
X-0125
X-013975Y-007625
Y-008375
X-01592Y-00767
Y-0074677
X-0166Y-007375
X-0167717Y-0072533
X-01685Y-00725
X-017225Y-0075
Y-0076
X-01761207Y-007495
X-017725Y-0076
X-01785Y-00765
X-01797496Y-00757498
X-018Y-00797102
X-0180586Y-008025
X-0181Y-008275
X-0180992Y-00859839
X-0181Y-008675
X-0178846Y-008775
X-017925Y-00885
X-01775697Y-00888101
X-017675Y-008675
Y-0085
Y-008425
X-01767498Y-00835
X-017675Y-008275
Y-0081
X-0178Y-007975
X-0175Y-0082
X-01655Y-008275
Y-00835
Y-008425
Y-0085
Y-00881
X-01692
X-01704Y-00894
X-01665Y-008025
X-0182783Y-0078283
X-018475Y-008075
X-01862Y-00753
Y-00725
X-019075Y-0084
X-01944866Y-00825
X-019775
X-019925Y-0084969
X-020025Y-0085
X-019975Y-007975
X-019775Y-00775
X-01840065Y-00877435
X-020125Y-0085
X-020225
X-0264717Y-0016217
X-02655Y-001625
X-0267Y-001775
X-00066312Y-00251313
X-00120937Y-00430838
X-02495Y-00035
T02
X-0259Y-009
X-0234
X-01925Y-0093
X-017175Y-0092
X-0163Y-009
X-0091
X-00675Y-009025
X-004375Y-00903892
X-00208337Y-00903288
X-003175Y-0075
X-0034Y-0071
X-0027Y-0056
X-003Y-0052
X-0061
X-0058Y-0056
X-0077
X-008Y-0052
X-007Y-0071
X-00675598Y-00748645
X-0084Y-0075
X-0089Y-0071
X-0108
X-011525Y-005625
X-0118Y-0052
X-0099
X-0096Y-0056
X-0134
X-0137Y-0052
X-0156
X-015325Y-0056
X-0146Y-0071
X-0127
X-0165
X-016425Y-0072923
X-0184Y-0071
X-01954875Y-00809
X-01914583Y-0055839
X-0194Y-0052
X-0175
X-017225Y-0056
X-02047487Y-00607
X-02104529Y-00560418
X-0213Y-0052
X-0232
X-02295124Y-00559161
X-0222Y-0071
X-0203
X-021625Y-008875
X-0239Y-0075
X-0241Y-0071
X-02484833Y-00558815
X-0251Y-0052
X-02835Y-0019
X-0256Y-0017
Y-0033
X-0251Y-0037
X-0237Y-0033
X-0232Y-0037
X-0218Y-0033
X-0213Y-0037
X-0218Y-0017
X-0237
X-0199
Y-0033
X-0194Y-0037
X-018Y-0033
X-0175Y-0037
X-018Y-0017
X-0161
Y-0033
X-0156Y-0037
X-0142Y-0033
X-0137Y-0037
X-0123Y-0033
Y-0017
X-0142
X-0104
Y-0033
X-0099Y-0037
X-0085Y-0033
Y-0017
X-0118Y-0037
X-008
X-0066Y-0033
X-0061Y-0037
X-0047Y-0033
Y-0017
X-0066
X-0023Y-0018
Y-0033
X-0018Y-0037
X-0042
X-02825Y-00075
T04
X-02595Y-00279
X-01565Y-00467
T05
X-026904Y-000495
X-026326
T06
X-00403742Y-0085454
X-00302142
X-00165617
X-00064017
X-00205897Y-00661502
X-00307497
X-00564079Y-0066404
X-00665679
X-00754579
X-00778392Y-0085454
X-00641867
X-00540267
X-00879992
X-00856179Y-0066404
X-00945079
X-01046679
X-01135579
X-01237179
X-01326079
X-01427679
X-01516579
X-01491763Y-00852
X-01593362
X-01618179Y-0066404
X-01707079
X-01808679
X-01897579
X-01999179
X-02088079Y-00664042
X-02189679
X-02278579Y-0066404
X-02380179
X-02308742Y-0085454
X-02207142
X-02445267
X-02546867
X-02683392
X-02784992
X-02688737Y-006615
X-02587137
X-02635767Y-0047354
X-02737367
X-02761179Y-0028304
X-02659579
X-02523054
X-02421454
X-02475429Y-0047354
X-02373829
X-02284929
X-02183329
X-02094555Y-0047454
X-02142054Y-0028304
X-02230954
X-02332554
X-02040454
X-01951554
X-01849954
X-01761054
X-01659454
X-01713429Y-0047354
X-01802329
X-01903929
X-01992955Y-0047454
X-01611829Y-0047354
X-01522929
X-01421329
X-01331805Y-0047379
X-01230204
X-01278451Y-0028304
X-01380051
X-01468954
X-01570554
X-01189554
X-01087954
X-00999051
X-00897451
X-00849829Y-0047354
X-00951429
X-01040329
X-01141929
X-00760929
X-00659329
X-00570429
X-00468829
X-00427554Y-0028304
X-00516454
X-00618054
X-00706954
X-00808554
X-00325954
X-00189429
X-00087829
X-00158263Y-00471
X-00259862
X-0023605Y-0009
X-0013445
X-00421204Y-0009254
X-00522804
X-00611704
X-00713304
X-00802204
X-00903804
X-00992704
X-01094304
X-01183201
X-01284801
X-01373704
X-01475304
X-01564204
X-01665804
X-01754704
X-01856304
X-01945204
X-02046804
X-02135704
X-02237304
X-02326204
X-02427804
X-02516704
X-02618304
X-02707204
X-02808804
T08
X-02759592Y-0090534
X-02521467
X-02283342
X-01567962Y-009028
X-00854592Y-0090534
X-00616467
X-00378342
X-00140217
X-00076717Y-0087994
X-00314842
X-00282097Y-00712302
X-00218597Y-00686902
X-00234463Y-005218
X-00545029Y-0052434
X-00735529
X-00767279Y-0068944
X-00640279Y-0071484
X-00576779Y-0068944
X-00552967Y-0087994
X-00791092
X-00830779Y-0071484
X-00957779Y-0068944
X-01021279Y-0071484
X-01148279Y-0068944
X-01211779Y-0071484
X-01116529Y-0052434
X-00926029
X-01306405Y-0052459
X-01497529Y-0052434
X-01529279Y-0068944
X-01592779Y-0071484
X-01402279
X-01338779Y-0068944
X-01504462Y-008774
X-01719779Y-0068944
X-01783279Y-0071484
X-01910279Y-0068944
X-01973779Y-0071484
X-01878529Y-0052434
X-01688029
X-02069155Y-0052534
X-02259529Y-0052434
X-02291279Y-0068944
X-02354779Y-0071484
X-02164279Y-00714842
X-02100779Y-00689442
X-02219842Y-0087994
X-02457967
X-02696092
X-02663337Y-007123
X-02599838Y-006869
X-02711967Y-0052434
X-02450029
X-02648467Y-0049894
X-02672279Y-0030844
X-02735779Y-0033384
X-02719904Y-0011794
X-02783404Y-0014334
X-02592904
X-02529404Y-0011794
X-02497654Y-0033384
X-02434154Y-0030844
X-02307154Y-0033384
X-02243654Y-0030844
X-02116654Y-0033384
X-02053154Y-0030844
X-02021404Y-0014334
X-02148404Y-0011794
X-02211904Y-0014334
X-02338904Y-0011794
X-02402404Y-0014334
X-02386529Y-0049894
X-02196029
X-02005655Y-0049994
X-01815029Y-0049894
X-01624529
X-01672154Y-0030844
X-01735654Y-0033384
X-01862654Y-0030844
X-01926154Y-0033384
X-01957904Y-0011794
X-01830904Y-0014334
X-01767404Y-0011794
X-01640404Y-0014334
X-01576904Y-0011794
X-01449904Y-0014334
X-01386404Y-0011794
X-01259401Y-0014334
X-01291151Y-0030844
X-01354651Y-0033384
X-01481654Y-0030844
X-01545154Y-0033384
X-01434029Y-0049894
X-01242905Y-0049919
X-01053029Y-0049894
X-00862529
X-00910151Y-0030844
X-00973651Y-0033384
X-01100654Y-0030844
X-01164154Y-0033384
X-01195901Y-0011794
X-01068904Y-0014334
X-01005404Y-0011794
X-00878404Y-0014334
X-00814904Y-0011794
X-00687904Y-0014334
X-00624404Y-0011794
X-00497404Y-0014334
X-00433904Y-0011794
X-00529154Y-0030844
X-00592654Y-0033384
X-00719654Y-0030844
X-00783154Y-0033384
X-00672029Y-0049894
X-00481529
X-00402154Y-0033384
X-00338654Y-0030844
X-00164029Y-0033384
X-00100529Y-0030844
X-0014715Y-001154
X-0021065Y-001408
X-00170963Y-004964
T09
X-02042561Y-00922
X-01042563
X-00375696Y-00591502
X-00137698
X-02518938Y-005915
X-02756937
X-00328061Y-00401
X-00090063
X-00066251Y-0002
X-00304249
T10
X-00351937Y-00852
X-00375696Y-00743902
X-00256697Y-00661502
X-00328061Y-005534
X-00090063
X-00137698Y-00743902
X-00113813Y-00852
X-00590062
X-00613875Y-006615
X-00804375
X-00994875
X-01042563Y-007696
X-01185375Y-006615
X-00828187Y-00852
X-01542563
X-01566375Y-006615
X-01375875
X-01756875
X-01947375
X-02137874Y-00661502
X-02328375Y-006615
X-02256938Y-00852
X-02042561Y-007696
X-02518938Y-007439
X-02495063Y-00852
X-02733188
X-02756937Y-007439
X-02637938Y-006615
X-02685562Y-00471
X-02709375Y-002805
X-0247125
X-02423625Y-00471
X-02233125
X-0204275Y-00472
X-0209025Y-002805
X-0228075
X-0189975
X-0170925
X-01661625Y-00471
X-01852125
X-01471125
X-0128Y-0047125
X-01328246Y-002805
X-0151875
X-0113775
X-00947246
X-00899625Y-00471
X-01090125
X-00709125
X-00518625
X-0056625Y-002805
X-0075675
X-0037575
X-00304249Y-001724
X-00066251
X-00137625Y-002805
X-00209062Y-00471
X-0018525Y-0009
X-00471
X-006615
X-00852
X-010425
X-01232996
X-014235
X-01614
X-018045
X-01995
X-021855
X-02376
X-025665
X-02757
M30
